<?xml version="1.0" standalone="no"?><!DOCTYPE svg PUBLIC "-//W3C//DTD SVG 1.1//EN" "http://www.w3.org/Graphics/SVG/1.1/DTD/svg11.dtd"><svg t="1739954829444" class="icon" viewBox="0 0 1024 1024" version="1.1" xmlns="http://www.w3.org/2000/svg" p-id="2983" xmlns:xlink="http://www.w3.org/1999/xlink" width="200" height="200"><path d="M384 424.96l40.96-40.96c-15.36 10.24-30.72 25.6-40.96 40.96z" p-id="2984"></path><path d="M1013.76 409.6c-5.12-20.48-10.24-40.96-15.36-56.32l-30.72-76.8c-10.24-15.36-15.36-30.72-25.6-46.08l-46.08-61.44-35.84-35.84-61.44-46.08c-15.36-10.24-30.72-20.48-46.08-25.6-25.6-10.24-51.2-25.6-76.8-30.72-20.48-5.12-35.84-10.24-56.32-15.36-30.72-10.24-66.56-15.36-97.28-15.36H512c-25.6 0-46.08 0-66.56 5.12-56.32 5.12-112.64 20.48-158.72 46.08C184.32 102.4 102.4 184.32 51.2 286.72c-25.6 46.08-40.96 102.4-46.08 153.6-5.12 25.6-5.12 46.08-5.12 71.68v10.24c0 35.84 5.12 66.56 10.24 97.28 5.12 20.48 10.24 40.96 15.36 56.32l30.72 76.8c10.24 15.36 15.36 30.72 25.6 46.08 20.48 20.48 35.84 40.96 51.2 61.44l35.84 35.84 61.44 46.08c15.36 10.24 30.72 20.48 46.08 25.6 25.6 10.24 51.2 25.6 76.8 30.72 20.48 5.12 35.84 10.24 56.32 15.36 35.84 5.12 66.56 10.24 102.4 10.24 25.6 0 51.2 0 76.8-5.12 56.32-10.24 112.64-25.6 158.72-51.2 92.16-46.08 163.84-122.88 215.04-215.04 25.6-51.2 46.08-102.4 51.2-163.84 10.24-25.6 10.24-51.2 10.24-76.8 0-35.84-5.12-66.56-10.24-102.4zM373.76 71.68L71.68 373.76c46.08-143.36 158.72-256 302.08-302.08zM51.2 512v-46.08L465.92 51.2h46.08c20.48 0 40.96 0 61.44 5.12L56.32 573.44C51.2 552.96 51.2 532.48 51.2 512z m153.6 343.04l220.16-220.16c-15.36-5.12-25.6-20.48-35.84-30.72L168.96 819.2c-15.36-20.48-35.84-40.96-46.08-61.44L358.4 522.24V512c0-30.72 10.24-61.44 25.6-87.04l-286.72 286.72-30.72-76.8L634.88 66.56c25.6 5.12 51.2 15.36 76.8 30.72L424.96 384C450.56 368.64 481.28 358.4 512 358.4h10.24l235.52-235.52c25.6 15.36 46.08 30.72 61.44 46.08l-220.16 220.16c15.36 10.24 30.72 20.48 40.96 35.84L855.04 204.8l46.08 61.44L665.6 506.88v5.12c0 87.04-66.56 153.6-153.6 153.6h-5.12l-235.52 240.64c-25.6-15.36-46.08-30.72-66.56-51.2z m112.64 71.68l614.4-614.4 30.72 76.8-563.2 563.2c-30.72 0-56.32-10.24-81.92-25.6z m194.56 46.08c-20.48 0-35.84 0-56.32-5.12l512-512c5.12 20.48 5.12 35.84 5.12 56.32 0 15.36 0 35.84-5.12 51.2L563.2 967.68c-15.36 5.12-35.84 5.12-51.2 5.12z m148.48-25.6l291.84-291.84c-51.2 138.24-158.72 245.76-291.84 291.84z" p-id="2985"></path><path d="M614.4 512c0-20.48-5.12-35.84-10.24-51.2-10.24-15.36-20.48-25.6-35.84-35.84-15.36-10.24-35.84-15.36-56.32-15.36-20.48 0-35.84 5.12-51.2 15.36-15.36 10.24-25.6 20.48-35.84 35.84-10.24 15.36-15.36 30.72-15.36 51.2s5.12 40.96 15.36 56.32c10.24 15.36 20.48 25.6 35.84 35.84 15.36 10.24 30.72 10.24 51.2 10.24 56.32 0 102.4-46.08 102.4-102.4z" p-id="2986"></path></svg>