<svg xmlns="http://www.w3.org/2000/svg" xmlns:xlink="http://www.w3.org/1999/xlink" viewBox="0 0 32 32" width="35" height="35" style="" filter="none">
    
    <g>
    <path d="M24.288 32c-0.096-0.256-0.32-0.384-0.48-0.544-2.592-2.592-5.184-5.216-7.808-7.808l-7.968-7.968c-2.624-2.656-5.28-5.28-7.936-7.936-0.128-0.128-0.128-0.192 0-0.352 2.432-2.432 4.896-4.864 7.328-7.296 0.128-0.128 0.192-0.128 0.32 0 2.464 2.464 4.928 4.96 7.392 7.424 0.224 0.192 0.48 0.416 0.672 0.64 0.16 0.16 0.224 0.16 0.384 0 0.928-0.928 1.888-1.888 2.816-2.848 0.16-0.16 0.32-0.224 0.544-0.16 0.96 0.256 1.92 0.48 2.848 0.736 0.16 0.032 0.256 0.096 0.352 0.192 0.992 0.992 1.984 2.016 2.976 3.008 0.111 0.086 0.192 0.208 0.223 0.348l0.001 0.004c0.256 0.96 0.48 1.92 0.736 2.88 0.032 0.192 0 0.32-0.128 0.448-0.96 0.928-1.92 1.888-2.88 2.848-0.16 0.16-0.192 0.256 0 0.416l8.032 8.032c0.096 0.096 0.16 0.224 0.288 0.224v0.064c-0.061 0.036-0.114 0.079-0.16 0.128l-0 0-7.36 7.36c-0.032 0.032-0.064 0.096-0.128 0.16h-0.064zM7.808 8.416l-0.192 0.192c-0.653 0.684-1.3 1.331-1.961 1.962l-0.023 0.022c-0.128 0.128-0.16 0.224 0 0.352l0.864 0.864c0.128 0.16 0.192 0.128 0.32 0l0.64-0.64c0.384-0.384 0.384-0.384 0.768 0.032 0.16 0.16 0.128 0.224 0 0.352-0.288 0.288-0.544 0.576-0.832 0.832-0.128 0.096-0.16 0.192 0 0.32l0.896 0.896c0.096 0.128 0.16 0.128 0.288 0 0.192-0.224 0.416-0.448 0.64-0.64 0.384-0.384 0.384-0.384 0.768-0.032 0.128 0.16 0.16 0.256 0 0.384-0.288 0.288-0.544 0.576-0.832 0.832-0.128 0.128-0.128 0.192 0 0.32 0.288 0.256 0.544 0.544 0.832 0.832 0.16 0.192 0.256 0.16 0.448 0 0.608-0.64 1.28-1.28 1.92-1.952 0.16-0.16 0.288-0.16 0.416 0.032l0.096 0.096c0.224 0.16 0.224 0.288 0.032 0.48-0.672 0.64-1.312 1.28-1.952 1.92-0.064 0.096-0.224 0.192-0.064 0.32l0.96 0.96c0.096 0.096 0.16 0.096 0.256 0l0.672-0.672c0.384-0.384 0.384-0.384 0.768 0 0.128 0.128 0.16 0.224 0 0.384-0.288 0.256-0.576 0.544-0.864 0.832-0.128 0.128-0.128 0.192 0 0.32 0.32 0.288 0.64 0.576 0.928 0.896 0.096 0.128 0.16 0.096 0.256 0l0.672-0.672c0.384-0.352 0.384-0.352 0.768 0 0.16 0.16 0.128 0.256-0.032 0.416l-0.8 0.8c-0.128 0.096-0.16 0.192 0 0.32 0.288 0.288 0.576 0.544 0.832 0.864 0.16 0.128 0.256 0.16 0.384-0.032 0.608-0.608 1.216-1.184 1.792-1.792 0.384-0.352 0.384-0.352 0.768 0 0.16 0.16 0.16 0.256 0 0.416-0.672 0.64-1.312 1.312-1.984 1.984-0.16 0.128-0.16 0.224 0 0.352l0.864 0.864c0.096 0.128 0.192 0.128 0.288 0 0.224-0.224 0.448-0.416 0.64-0.64 0.416-0.384 0.384-0.384 0.8 0 0.16 0.16 0.128 0.256-0.032 0.384-0.288 0.256-0.544 0.544-0.832 0.8-0.096 0.096-0.128 0.192 0 0.32 0.32 0.288 0.608 0.608 0.928 0.928 0.096 0.128 0.192 0.096 0.288-0.032l0.608-0.608c0.416-0.416 0.416-0.416 0.832 0 0.128 0.128 0.096 0.192 0 0.32l-0.864 0.864c-0.128 0.096-0.16 0.192-0.032 0.32 0.32 0.256 0.608 0.544 0.864 0.864 0.16 0.128 0.224 0.16 0.384 0 0.608-0.64 1.248-1.248 1.888-1.888 0.288-0.32 0.288-0.32 0.608 0 0 0.032 0.032 0.032 0.032 0.064 0.224 0.128 0.16 0.256 0 0.416l-1.984 1.984c-0.128 0.128-0.128 0.192 0 0.352 0.32 0.256 0.608 0.576 0.896 0.864 0.096 0.128 0.192 0.128 0.288 0l0.64-0.64c0.416-0.416 0.416-0.416 0.8 0.032 0.128 0.128 0.128 0.192 0 0.288-0.288 0.288-0.544 0.576-0.832 0.864-0.16 0.128-0.192 0.192-0.032 0.352 0.288 0.256 0.576 0.544 0.832 0.832 0.192 0.192 0.288 0.128 0.448-0.032 1.6-1.632 3.232-3.264 4.864-4.864 0.192-0.192 0.192-0.288 0-0.48l-3.744-3.744c-2.048-2.016-4.064-4.064-6.112-6.112l-11.808-11.808c-0.16-0.128-0.224-0.16-0.384 0-0.512 0.544-1.056 1.056-1.568 1.6-1.12 1.088-2.208 2.208-3.328 3.296-0.224 0.224-0.192 0.32 0 0.512 0.16 0.128 0.32 0.256 0.448 0.416s0.224 0.16 0.352 0.032c0.192-0.224 0.416-0.416 0.608-0.64 0.416-0.416 0.416-0.416 0.832 0.032 0.096 0.128 0.096 0.192-0.032 0.288-0.288 0.288-0.544 0.576-0.864 0.864-0.096 0.128-0.128 0.192 0 0.32 0.32 0.288 0.608 0.576 0.896 0.896 0.128 0.16 0.224 0.128 0.32 0l1.952-1.952c0.096-0.096 0.16-0.256 0.288-0.192 0.16 0.16 0.32 0.352 0.512 0.512zM19.712 7.68c-0.032-0.032-0.096 0.064-0.16 0.128l-1.888 1.888c-0.128 0.128-0.128 0.192 0 0.32 0.288 0.288 0.576 0.576 0.864 0.896 0.128 0.128 0.224 0.096 0.32-0.032 0.256-0.256 0.512-0.512 0.768-0.736 0.544-0.576 1.12-1.12 1.664-1.696 0.064-0.064 0.224-0.16 0.032-0.224-0.512-0.192-1.024-0.352-1.6-0.544zM24.384 12.32c0-0.032-0.032-0.064-0.032-0.128-0.16-0.448-0.32-0.864-0.448-1.312-0.064-0.224-0.128-0.256-0.288-0.096-0.8 0.832-1.632 1.632-2.432 2.432-0.096 0.128-0.128 0.192 0 0.32 0.288 0.288 0.608 0.576 0.896 0.896 0.096 0.128 0.192 0.128 0.288 0l1.888-1.888c0.064-0.032 0.128-0.096 0.128-0.224zM5.216 21.92c0.576 0.192 1.12 0.352 1.632 0.544 0.16 0.064 0.256-0.032 0.32-0.128l1.856-1.856c0.16-0.16 0.256-0.192 0.416-0.032 0.672 0.704 1.376 1.376 2.080 2.080 0.128 0.128 0.16 0.224 0 0.384-0.64 0.608-1.248 1.248-1.888 1.856-0.128 0.128-0.16 0.256-0.096 0.448 0.16 0.416 0.288 0.832 0.416 1.216 0.096 0.32 0.096 0.32 0.32 0.096l2.4-2.4c0.192-0.192 0.288-0.192 0.448 0 0.288 0.32 0.576 0.608 0.864 0.864 0.128 0.128 0.128 0.224 0 0.32-1.516 1.511-3.007 3.012-4.491 4.521l-0.085 0.087c-0.089 0.094-0.213 0.154-0.351 0.16l-0.001 0c0.721-0.057-1.65 0.486-4.029 1.011l-3.011 0.557c-0.16 0.064-0.288 0-0.448-0.096-0.544-0.416-0.64-0.928-0.544-1.6 0.224-1.728 0.352-3.52 0.544-5.28 0.064-0.64 0.128-1.28 0.192-1.888 0-0.16 0.096-0.288 0.192-0.384l4.512-4.512c0.16-0.16 0.256-0.192 0.384-0.032 0.352 0.352 0.672 0.704 1.024 1.024 0.16 0.128 0.128 0.224 0 0.352-0.832 0.832-1.664 1.632-2.496 2.464-0.032 0.064-0.096 0.128-0.16 0.224zM2.528 27.52c-0.032 0.096 0.096 0.16 0.16 0.256 0.588 0.583 1.161 1.167 1.727 1.758l0.032 0.034c0.096 0.096 0.192 0.128 0.32 0.096 0.992-0.224 1.984-0.448 2.976-0.64 0.192-0.032 0.224-0.16 0.256-0.288l0.384-1.728c0.032-0.192 0-0.32-0.16-0.448-0.928-0.928-1.856-1.856-2.784-2.816-0.096-0.096-0.192-0.128-0.352-0.096-0.608 0.128-1.216 0.224-1.856 0.32-0.16 0.032-0.224 0.128-0.256 0.288-0.032 0.416-0.096 0.8-0.16 1.216 0.109-1.049 0.008-0.349-0.091 0.35l-0.197 1.698zM20.896 3.36c0.384-0.32 0.704-0.608 0.992-0.896 0.448-0.448 0.896-0.896 1.344-1.376 0.128-0.096 0.224-0.16 0.416-0.128 0.96 0.288 1.952 0.512 2.944 0.768 0.128 0.032 0.224 0.096 0.32 0.16 1.028 1.055 2.009 2.046 2.997 3.029l0.011 0.011c0.096 0.096 0.16 0.192 0.192 0.32 0.224 0.96 0.48 1.92 0.736 2.88 0.032 0.16 0.032 0.288-0.096 0.448-0.736 0.704-1.472 1.44-2.208 2.176-0.032 0.032-0.064 0.032-0.128 0.096-0.16-0.736-0.352-1.44-0.544-2.144v-0.128c-0.096-0.736-0.48-1.28-1.056-1.792-0.8-0.768-1.568-1.568-2.368-2.368-0.125-0.13-0.29-0.221-0.475-0.255l-0.005-0.001c-0.864-0.224-1.728-0.416-2.592-0.64-0.128-0.032-0.224-0.096-0.48-0.16z" fill="rgba(0,0,0,1)"></path>
    </g>
  </svg>