<?xml version="1.0" standalone="no"?><!DOCTYPE svg PUBLIC "-//W3C//DTD SVG 1.1//EN" "http://www.w3.org/Graphics/SVG/1.1/DTD/svg11.dtd"><svg t="1719309672530" class="icon" viewBox="0 0 1024 1024" version="1.1" xmlns="http://www.w3.org/2000/svg" p-id="1542" width="16" height="16" xmlns:xlink="http://www.w3.org/1999/xlink"><path d="M512 0a512 512 0 1 1-512 512 512.576 512.576 0 0 1 512-512zM416 932.736v-70.4a33.408 33.408 0 1 1 66.752 0v80.064c9.728 0.64 19.2 1.472 29.248 1.472 11.776 0 23.36-0.832 34.88-1.728v-80.768a33.408 33.408 0 1 1 66.752 0v69.952a432.768 432.768 0 0 0 320.384-328.32h-70.4a33.408 33.408 0 1 1 0-66.752h78.784c0.448-8.064 1.216-16 1.216-24.128 0-13.44-0.832-26.816-1.984-39.936h-80.96a33.408 33.408 0 0 1 0-66.88h69.376A432.768 432.768 0 0 0 613.76 92.8v69.76a33.408 33.408 0 0 1-66.752 0V81.984a418.624 418.624 0 0 0-34.88-1.728c-9.856 0-19.52 0.832-29.248 1.472v80.064a33.408 33.408 0 1 1-66.752 0v-70.4A432.768 432.768 0 0 0 94.08 405.312h69.888a33.408 33.408 0 1 1 0 66.752H82.24A433.344 433.344 0 0 0 80.256 512c0 8.192 0.768 16.128 1.216 24.128h79.232a33.408 33.408 0 0 1 0 66.752h-70.4a432.64 432.64 0 0 0 325.888 329.792z" p-id="1543" fill="#515151"></path><path d="M728.768 291.072H450.816v39.872h277.952z m-316.096 30.336a1392.256 1392.256 0 0 0-106.688-57.6l-23.04 29.76c34.816 18.56 81.984 46.592 105.536 62.912z m-29.184 150.464c-24.192-15.744-71.296-40.448-103.872-57.024l-23.04 30.336a1369.6 1369.6 0 0 1 103.872 60.608z m-73.024 288.576a2036.928 2036.928 0 0 0 101.632-180.224l-30.336-27.52a1587.2 1587.2 0 0 1-106.112 179.648z m457.024-303.744v-39.296H412.672v39.296h83.2a1898.88 1898.88 0 0 1-32 131.968h213.248c-7.104 80.832-14.592 118.464-28.608 128.576a45.248 45.248 0 0 1-27.52 5.056c-16.832 0-63.424-0.576-108.8-4.48a81.6 81.6 0 0 1 16.256 39.872 866.816 866.816 0 0 0 105.024 1.664 67.968 67.968 0 0 0 51.2-16.832c18.56-17.984 27.52-63.424 36.48-174.592 0.576-5.632 1.152-18.56 1.152-18.56h-206.08c7.296-29.184 14.016-62.336 20.224-92.672z" p-id="1544" fill="#515151"></path></svg>