<?xml version="1.0" standalone="no"?><!DOCTYPE svg PUBLIC "-//W3C//DTD SVG 1.1//EN" "http://www.w3.org/Graphics/SVG/1.1/DTD/svg11.dtd"><svg t="1719309698489" class="icon" viewBox="0 0 1024 1024" version="1.1" xmlns="http://www.w3.org/2000/svg" p-id="2741" xmlns:xlink="http://www.w3.org/1999/xlink" width="16" height="16"><path d="M511.872133 1021.868887C230.35205 1021.868887 1.342601 792.859438 1.342601 511.339355S230.35205 0.767201 511.872133 0.767201s510.529532 229.009448 510.529532 510.529532-229.009448 510.572154-510.529532 510.572154z m0-941.142311c-237.448658 0-430.612778 193.164121-430.612778 430.612779S274.423476 941.952133 511.872133 941.952133s430.570156-193.164121 430.570156-430.612778S749.320791 80.726576 511.872133 80.726576z" fill="#515151" p-id="2742"></path><path d="M574.526868 195.337856a33.373236 33.373236 0 0 1-33.287992-33.287991V56.815484c0-18.327575 15.003039-33.287992 33.287992-33.287992 18.327575 0 33.287992 15.003039 33.287992 33.287992v105.234381c0 18.327575-15.003039 33.287992-33.287992 33.287991zM443.97486 196.190302a33.373236 33.373236 0 0 1-33.287992-33.287992V57.667929c0-18.327575 15.003039-33.287992 33.287992-33.287991 18.327575 0 33.287992 15.003039 33.287991 33.287991v105.234381a33.373236 33.373236 0 0 1-33.287991 33.287992zM574.526868 999.151217a33.373236 33.373236 0 0 1-33.287992-33.287991v-105.234381c0-18.327575 15.003039-33.287992 33.287992-33.287992 18.327575 0 33.287992 15.003039 33.287992 33.287992v105.234381a33.415858 33.415858 0 0 1-33.287992 33.287991zM443.97486 998.128283a33.373236 33.373236 0 0 1-33.287992-33.287992v-105.23438c0-18.327575 15.003039-33.287992 33.287992-33.287992 18.327575 0 33.287992 15.003039 33.287991 33.287992v105.23438c0 18.327575-14.960416 33.287992-33.287991 33.287992zM197.746015 438.199542c0 18.327575-15.003039 33.287992-33.287992 33.287992H59.223642a33.373236 33.373236 0 0 1-33.287992-33.287992c0-18.327575 15.003039-33.287992 33.287992-33.287992h105.234381a33.373236 33.373236 0 0 1 33.287992 33.287992zM194.890323 568.708928c0 18.327575-15.003039 33.287992-33.287992 33.287992H56.36795a33.373236 33.373236 0 0 1-33.287992-33.287992c0-18.327575 15.003039-33.287992 33.287992-33.287991h105.234381c18.327575 0 33.287992 14.960416 33.287992 33.287991zM997.680749 438.199542c0 18.327575-15.003039 33.287992-33.287991 33.287992h-105.234381a33.373236 33.373236 0 0 1-33.287992-33.287992c0-18.327575 15.003039-33.287992 33.287992-33.287992h105.234381a33.373236 33.373236 0 0 1 33.287991 33.287992zM1000.920042 568.708928c0 18.327575-15.003039 33.287992-33.287992 33.287992h-105.234381a33.373236 33.373236 0 0 1-33.287992-33.287992c0-18.327575 15.003039-33.287992 33.287992-33.287991h105.234381c18.327575 0 33.287992 14.960416 33.287992 33.287991z" fill="#515151" p-id="2743"></path><path d="M379.828345 283.565952c-46.586139 68.57923-76.336483 111.286743-76.336482 152.715588 0 40.107555 32.350302 72.457856 72.457856 75.057815 18.114464-33.62897 42.707513-71.179188 71.179188-113.886702-11.635879-31.071634-34.907638-66.021894-67.300562-113.886701zM643.873299 340.509303c-32.350302 47.864807-55.664683 82.815068-67.300562 113.886701 27.193007 41.428845 46.586139 77.657773 58.222018 112.608033a74.802081 74.802081 0 0 0 85.415026-73.779146c0-41.428845-29.750343-84.136358-76.336482-152.715588zM378.549677 626.504724a112.949011 112.949011 0 0 0 113.886702 112.608034c63.421935 0 113.886701-50.464766 113.886701-112.608034s-43.986181-126.843871-113.886701-229.052071c-68.57923 102.2082-113.886701 165.630135-113.886702 229.052071z" fill="#515151" p-id="2744"></path></svg>