<?xml version="1.0" standalone="no"?><!DOCTYPE svg PUBLIC "-//W3C//DTD SVG 1.1//EN" "http://www.w3.org/Graphics/SVG/1.1/DTD/svg11.dtd"><svg t="1717381942767" class="icon" viewBox="0 0 1024 1024" version="1.1" xmlns="http://www.w3.org/2000/svg" p-id="8172" xmlns:xlink="http://www.w3.org/1999/xlink" width="200" height="200"><path d="M177.5 618.7h95.2v234.1h-95.2z m23.8-63.9c-7.2 0-14.4-3.1-19.4-9.2-8.7-10.7-7.2-26.4 3.5-35.2l234.9-192.2L530 421.8l276.4-236.3c10.5-9 26.3-7.7 35.2 2.8 9 10.5 7.7 26.3-2.8 35.2L528.4 489 418 384.8 217.1 549.1c-4.6 3.8-10.2 5.7-15.8 5.7z" fill="#ffffff" p-id="8173"></path><path d="M822.7 328.7c-13.8 0-25-11.2-25-25V197.1c0-13.8 11.2-25 25-25s25 11.2 25 25v106.6c0 13.8-11.2 25-25 25z" fill="#ffffff" p-id="8174"></path><path d="M822.7 221.2H716.1c-13.8 0-25-11.2-25-25s11.2-25 25-25h106.6c13.8 0 25 11.2 25 25s-11.2 25-25 25z m-70.4 162.4h95.2v468.9h-95.2zM608.6 485.2h95.2v367.4h-95.2z m-143.7 86.4h95.2v280.8h-95.2z m-145.6-45.7h95.2v326.4h-95.2z" fill="#ffffff" p-id="8175"></path></svg>