<?xml version="1.0" standalone="no"?><!DOCTYPE svg PUBLIC "-//W3C//DTD SVG 1.1//EN" "http://www.w3.org/Graphics/SVG/1.1/DTD/svg11.dtd"><svg t="1717381887515" class="icon" viewBox="0 0 1024 1024" version="1.1" xmlns="http://www.w3.org/2000/svg" p-id="5749" xmlns:xlink="http://www.w3.org/1999/xlink" width="200" height="200"><path d="M512.69 870.33H183.42c-20.58 0-37.32-15.16-37.32-33.8V185.86c0-18.63 16.74-33.79 37.32-33.79h534.27c20.58 0 37.32 15.16 37.32 33.79v250.59a24 24 0 1 0 48 0V185.86c0-45.1-38.28-81.79-85.32-81.79H183.42c-47 0-85.32 36.69-85.32 81.79v650.67c0 45.1 38.28 81.8 85.32 81.8h329.27a24 24 0 0 0 0-48z" fill="#ffffff" p-id="5750"></path><path d="M558.92 488.45a24 24 0 0 0-24-24H237.43a24 24 0 1 0 0 48h297.49a24 24 0 0 0 24-24zM682 307.21a24 24 0 0 0-24-24H237.43a24 24 0 0 0 0 48H658a24 24 0 0 0 24-24zM242.9 638.94a24 24 0 1 0 0 48h183.94a24 24 0 0 0 0-48zM918.87 874.55l-49.8-49.8a204 204 0 0 0 44.23-127c0-113-91.94-205-205-205s-205 92-205 205 91.94 205 205 205a204 204 0 0 0 126.77-44l49.81 49.82a24 24 0 0 0 34-33.94z m-210.53-19.87c-86.54 0-157-70.41-157-157s70.41-157 157-157 157 70.41 157 157-70.45 157-157 157z" fill="#ffffff" p-id="5751"></path></svg>