<?xml version="1.0" standalone="no"?><!DOCTYPE svg PUBLIC "-//W3C//DTD SVG 1.1//EN" "http://www.w3.org/Graphics/SVG/1.1/DTD/svg11.dtd"><svg t="1717411982997" class="icon" viewBox="0 0 1024 1024" version="1.1" xmlns="http://www.w3.org/2000/svg" p-id="4294" xmlns:xlink="http://www.w3.org/1999/xlink" width="200" height="200"><path d="M898.389333 567.466667l-347.733333 156.288c-33.28 14.506667-46.549333 14.506667-77.312 0L125.610667 567.466667c-18.474667-9.813333-23.466667-46.08-23.466667-65.92 23.210667 13.269333 55.893333 28.074667 54.656 27.306666L512 692.608l355.2-163.754667c0.597333-0.128 32.298667-16.128 54.613333-27.306666 0 20.266667-6.229333 57.898667-23.424 65.92z m0-163.754667l-347.733333 156.330667c-33.28 14.464-46.549333 14.464-77.312 0l-347.733333-156.330667c-27.306667-14.506667-26.453333-60.16 0-77.226667l347.733333-183.594666c30.72-15.36 49.962667-16.213333 77.312 0l347.733333 183.594666c26.453333 14.506667 25.6 65.28 0 77.226667zM512 174.037333L156.8 365.098667 512 514.773333l355.2-149.674666L512 174.037333z m0 682.325334l355.2-163.754667c0.597333-0.170667 32.298667-16.128 54.613333-27.306667 0 20.266667-6.229333 57.898667-23.424 65.877334l-347.733333 156.330666c-33.28 14.506667-46.549333 14.506667-77.312 0l-347.733333-156.330666c-18.474667-9.813333-23.466667-46.08-23.466667-65.877334 23.210667 13.226667 55.893333 28.032 54.656 27.306667L512 856.32z" fill="#ffffff" p-id="4295"></path></svg>